# xmcd CD database file
#
# Track frame offsets:
#	150
#	16082
#	28707
#	43967
#	68200
#	77987
#	99230
#	115902
#	136550
#	149797
#	165960
#	192275
#	208535
#	214775
#	228947
#	242085
#	264192
#	283372
#	295512
#
# Disc length: 4179 seconds
#
# Revision: 0
# Processed by: cddbd v1.5.1PL2 Copyright (c) Steve Scherf et al.
# Submitted via: CDex 1.51
#
DISCID=0e105113
DTITLE=グレート・コンポーザー - オペラ オリジナル・ハイライト
DYEAR=1900
DGENRE=オペラ
TTITLE0=ビゼー:≪カルメン≫「前奏曲」
TTITLE1=モーツァルト:≪魔笛≫「おれは鳥刺しさまだ」
TTITLE2=モーツァルト:≪コシ・ファン・トゥッテ≫「風は穏やかに」
TTITLE3=ヴェルディ:≪アイーダ≫「エジプトに栄えあれ」〜<凱旋行進曲>
TTITLE4=ヴェルディ:≪リゴレット≫<女心の歌>
TTITLE5=ロッシーニ:≪セビリアの理髪師≫<私は町の何でも屋>
TTITLE6=ドニゼッティ:≪ドン・パスクァーレ≫「なんと快い」
TTITLE7=プッチーニ:≪蝶々夫人≫「ある晴れた日に」
TTITLE8=プッチーニ:≪トゥーランドット≫「誰も眠ってはならない!」
TTITLE9=レオンカヴァレロ:≪道化師≫「衣装を着けて」
TTITLE10=グノー:≪ファウスト≫<兵士の合唱>
TTITLE11=モーツァルト:≪フィガロの結婚≫「もう飛べないだろう、恋の蝶々くん」
TTITLE12=モーツァルト:≪ドン・ジョバンニ≫<シャンパンの歌>
TTITLE13=ヴェルディ:≪椿姫≫<乾杯の歌>
TTITLE14=ヴェルディ:≪トロヴァトーレ≫<朝の光がさしてきた>
TTITLE15=プッチーニ:≪ラ・ボエーム≫「ええ、私はミミと呼ばれていますの」
TTITLE16=プッチーニ:≪トスカ≫「星は輝き…」
TTITLE17=ワーグナー:≪ヴァルキューレ≫<ヴァルキューレの騎行>
TTITLE18=J・シュトラウス?:≪こうもり≫<こうもりのワルツ>
EXTD=
EXTT0=
EXTT1=
EXTT2=
EXTT3=
EXTT4=
EXTT5=
EXTT6=
EXTT7=
EXTT8=
EXTT9=
EXTT10=
EXTT11=
EXTT12=
EXTT13=
EXTT14=
EXTT15=
EXTT16=
EXTT17=
EXTT18=
PLAYORDER=
